<?xml version="1.0" encoding="UTF-8"?>
<svg id="Layer_1" data-name="Layer 1" xmlns="http://www.w3.org/2000/svg" viewBox="0 0 2000 3000">
  <defs>
    <style>
      .cls-1, .cls-2 {
        stroke-width: 0px;
      }

      .cls-2 {
        fill: #04cda3;
      }
    </style>
  </defs>
  <path class="cls-1" d="m653.26,1540.74c-54.11,0-104.71-10.18-151.81-30.56-47.1-20.37-88.18-48.76-123.25-85.18-35.06-36.4-62.47-78.99-82.16-127.75-19.71-48.76-29.57-101.53-29.57-158.33s9.86-108.37,29.57-156.82c19.69-48.43,47.1-90.84,82.16-127.26,35.07-36.41,75.99-64.96,122.76-85.68,46.75-20.7,97.52-31.06,152.31-31.06,51.44,0,95.69,6.69,132.77,20.04,37.07,13.37,74.3,35.41,111.73,66.13,5.34,4,9.52,8.19,12.52,12.52,3.01,4.36,5.02,8.69,6.02,13.03.99,4.36,1.5,9.53,1.5,15.54,0,12.7-4.51,23.22-13.53,31.57-9.01,8.36-19.88,13.03-32.56,14.02-12.7,1-25.06-3.16-37.08-12.52-24.72-21.37-50.27-37.74-76.65-49.1-26.4-11.35-61.29-17.03-104.71-17.03-39.42,0-76.49,8.01-111.22,24.05-34.74,16.04-65.31,38.07-91.69,66.13-26.4,28.06-46.94,60.63-61.63,97.7-14.7,37.08-22.04,76.65-22.04,118.74s7.34,82.67,22.04,119.75c14.69,37.07,35.23,69.64,61.63,97.7,26.38,28.06,56.94,49.95,91.69,65.64,34.73,15.7,71.8,23.55,111.22,23.55,34.07,0,66.29-5.84,96.7-17.54,30.39-11.69,59.62-27.89,87.68-48.6,12.02-8.67,23.88-12.52,35.57-11.52,11.68,1,21.54,5.68,29.56,14.03,8.02,8.36,12.02,19.88,12.02,34.57,0,6.69-1.34,13.19-4,19.54-2.68,6.36-6.69,12.19-12.02,17.53-36.08,28.73-74.66,50.45-115.74,65.14-41.08,14.69-84.34,22.05-129.76,22.05Z"/>
  <path class="cls-1" d="m1080.56,1530.72c-18.71,0-33.07-8.02-43.09-24.05-10.02-16.04-11.02-33.07-3-51.11l281.57-672.36c10.02-23.38,26.38-35.07,49.1-35.07,24.05,0,40.41,11.69,49.09,35.07l282.57,674.37c7.34,18.71,6.17,35.57-3.51,50.6-9.69,15.03-24.22,22.54-43.59,22.54-10.02,0-19.53-2.83-28.56-8.52-9.02-5.67-15.53-13.53-19.54-23.55l-248.5-617.26h28.06l-252.51,617.26c-4.69,10.69-11.53,18.71-20.55,24.05-9.02,5.35-18.21,8.02-27.55,8.02Zm53.11-172.35l40.08-86.18h392.8l40.08,86.18h-472.96Z"/>
  <path class="cls-1" d="m348.58,2505.67c-14.7,0-27.06-5.01-37.07-15.03-10.02-10.02-15.03-22.37-15.03-37.07v-678.38c0-15.35,5.01-27.88,15.03-37.58,10.02-9.67,22.38-14.53,37.07-14.53h198.64c57.44,0,109.72,9.52,156.82,28.56,47.1,19.05,88,46.1,122.75,81.17,34.73,35.07,61.45,76.33,80.16,123.75,18.69,47.44,28.06,99.88,28.06,157.32s-9.37,110.07-28.06,157.82c-18.71,47.77-45.43,89.18-80.16,124.26-34.74,35.07-75.65,62.13-122.75,81.17-47.1,19.04-99.38,28.56-156.82,28.56h-198.64Zm52.11-92.18h146.53c56.11,0,105.71-12.86,148.8-38.58,43.09-25.71,76.98-61.12,101.7-106.21,24.71-45.1,37.08-96.7,37.08-154.82s-12.37-110.56-37.08-155.32c-24.72-44.74-58.61-79.82-101.7-105.21-43.09-25.39-92.69-38.08-148.8-38.08h-146.53v598.22Z"/>
  <path class="cls-1" d="m1374.66,2513.69c-64.13,0-120.92-11.87-170.35-35.58-49.45-23.7-88.03-56.61-115.74-98.69-27.72-42.09-41.58-90.19-41.58-144.3v-467.95c0-15.35,5.01-27.88,15.03-37.58,10.02-9.67,22.38-14.53,37.07-14.53s27.89,4.86,37.58,14.53c9.68,9.7,14.54,22.22,14.54,37.58v467.95c0,36.08,9.52,67.98,28.56,95.69,19.04,27.73,45.42,49.45,79.16,65.14,33.72,15.7,72.3,23.55,115.74,23.55s79.31-7.85,111.72-23.55c32.4-15.69,57.78-37.41,76.16-65.14,18.36-27.71,27.56-59.62,27.56-95.69v-467.95c0-15.35,5.01-27.88,15.02-37.58,10.02-9.67,22.38-14.53,37.08-14.53s27.71,4.86,37.07,14.53c9.35,9.7,14.03,22.22,14.03,37.58v467.95c0,54.11-13.52,102.21-40.58,144.3-27.06,42.08-64.63,74.99-112.73,98.69-48.1,23.71-103.21,35.58-165.33,35.58Z"/>
  <path class="cls-2" d="m1577.55,714.02c-86.24,0-156.4-70.16-156.4-156.4s70.16-156.4,156.4-156.4,156.4,70.16,156.4,156.4-70.16,156.4-156.4,156.4Zm0-243.74c-48.16,0-87.34,39.18-87.34,87.34s39.18,87.34,87.34,87.34,87.34-39.18,87.34-87.34-39.18-87.34-87.34-87.34Z"/>
  <rect class="cls-2" x="264.46" y="361.69" width="1453.74" height="79.05" rx="39.53" ry="39.53" transform="translate(-62.52 219.25) rotate(-12.24)"/>
  <rect class="cls-2" x="296.48" y="2711" width="1414.29" height="73.02" rx="36.51" ry="36.51"/>
</svg>