<?xml version="1.0" encoding="UTF-8"?>
<svg id="Layer_1" data-name="Layer 1" xmlns="http://www.w3.org/2000/svg" viewBox="0 0 2000 3000">
  <defs>
    <style>
      .cls-1 {
        stroke-width: 0px;
      }
    </style>
  </defs>
  <g>
    <g>
      <path class="cls-1" d="m402.49,2938.38c-8.52,0-16.48-1.63-23.89-4.89-7.41-3.25-13.94-7.81-19.56-13.64-5.62-5.83-10.02-12.56-13.17-20.19-3.15-7.62-4.73-15.79-4.73-24.53s1.55-16.74,4.65-24.37c3.09-7.62,7.46-14.32,13.08-20.11,5.63-5.78,12.15-10.34,19.56-13.64,7.41-3.31,15.43-4.97,24.05-4.97,7.57,0,14.46,1.1,20.66,3.31,6.21,2.21,12.19,5.73,17.97,10.57.95.73,1.5,1.6,1.66,2.6.16,1,.03,1.95-.4,2.84-.42.89-1.05,1.55-1.89,1.97-.22.84-.74,1.48-1.58,1.89-.84.42-1.82.58-2.93.47-1.1-.1-2.18-.57-3.23-1.42-4.1-3.57-8.57-6.23-13.41-7.97-4.84-1.73-10.46-2.6-16.88-2.6-6.84,0-13.22,1.37-19.16,4.1-5.94,2.74-11.17,6.47-15.69,11.2-4.53,4.74-8.08,10.2-10.65,16.41-2.58,6.21-3.86,12.77-3.86,19.71s1.28,13.83,3.86,20.03c2.57,6.21,6.12,11.68,10.65,16.41,4.52,4.73,9.75,8.44,15.69,11.12,5.94,2.68,12.33,4.02,19.16,4.02,5.78,0,11.25-.95,16.41-2.84,5.15-1.9,10.04-4.63,14.66-8.2,1.26-1.05,2.61-1.47,4.03-1.26,1.42.21,2.65.83,3.7,1.89,1.05,1.05,1.58,2.42,1.58,4.1,0,.84-.1,1.61-.31,2.29-.21.68-.68,1.39-1.42,2.12-5.36,4.95-11.35,8.44-17.97,10.49-6.63,2.05-13.51,3.08-20.66,3.08Zm40.38-17.98l-11.99-2.52v-31.7h-24.6c-1.79,0-3.26-.52-4.42-1.58-1.16-1.05-1.74-2.37-1.74-3.95s.58-2.87,1.74-3.86c1.16-1,2.63-1.5,4.42-1.5h30.44c1.79,0,3.25.56,4.41,1.65,1.16,1.1,1.74,2.55,1.74,4.34v39.11Z"/>
      <path class="cls-1" d="m547.16,2936.81c-1.79,0-3.25-.57-4.41-1.74-1.16-1.16-1.74-2.62-1.74-4.42v-110.88c0-1.79.57-3.25,1.74-4.42,1.16-1.16,2.62-1.74,4.41-1.74s3.26.58,4.42,1.74c1.16,1.16,1.74,2.63,1.74,4.42v110.88c0,1.8-.58,3.26-1.74,4.42-1.16,1.16-2.63,1.74-4.42,1.74Z"/>
      <path class="cls-1" d="m665.33,2936.81c-1.68,0-3.13-.61-4.33-1.81-1.21-1.21-1.81-2.66-1.81-4.34v-110.88c0-1.79.57-3.25,1.74-4.42,1.16-1.16,2.62-1.74,4.41-1.74h73.97c1.79,0,3.26.56,4.42,1.66,1.16,1.1,1.74,2.55,1.74,4.33,0,1.58-.58,2.95-1.74,4.11-1.16,1.16-2.63,1.73-4.42,1.73h-67.82v43.54h49.37c1.78,0,3.25.57,4.41,1.74,1.16,1.16,1.74,2.57,1.74,4.26s-.58,3.1-1.74,4.26c-1.16,1.16-2.63,1.74-4.41,1.74h-49.37v49.68c0,1.69-.58,3.14-1.74,4.34-1.16,1.21-2.63,1.81-4.42,1.81Z"/>
      <path class="cls-1" d="m813.87,2824.83c-1.69,0-3.05-.53-4.1-1.58-1.05-1.05-1.58-2.37-1.58-3.95,0-1.68.52-3.05,1.58-4.11,1.05-1.05,2.41-1.58,4.1-1.58h87.22c1.69,0,3.05.53,4.11,1.58,1.05,1.05,1.58,2.43,1.58,4.11,0,1.58-.53,2.89-1.58,3.95-1.05,1.05-2.42,1.58-4.11,1.58h-87.22Zm43.53,111.98c-1.68,0-3.13-.61-4.33-1.81-1.21-1.21-1.81-2.66-1.81-4.34v-117.03h12.3v117.03c0,1.69-.58,3.14-1.74,4.34s-2.63,1.81-4.42,1.81Z"/>
      <path class="cls-1" d="m1014.16,2938.38c-6.74,0-12.97-.97-18.69-2.92-5.73-1.95-10.7-4.7-14.91-8.28-4.21-3.57-7.41-7.73-9.62-12.46-.84-1.68-.87-3.24-.08-4.65.79-1.42,2.13-2.39,4.02-2.92,1.48-.42,2.92-.26,4.34.47,1.42.74,2.5,1.84,3.23,3.31,1.58,3.05,3.9,5.78,6.94,8.2,3.05,2.42,6.68,4.28,10.88,5.6,4.21,1.32,8.84,1.97,13.89,1.97,5.56,0,10.51-.92,14.82-2.77,4.31-1.84,7.71-4.52,10.18-8.04,2.47-3.52,3.7-7.81,3.7-12.85,0-6.42-2.36-11.94-7.09-16.57-4.74-4.62-12.15-7.57-22.24-8.83-12.3-1.48-21.93-5.29-28.87-11.44-6.94-6.15-10.4-13.69-10.4-22.63,0-6.42,1.7-11.99,5.13-16.72,3.41-4.73,8.12-8.39,14.11-10.96,5.99-2.58,12.87-3.87,20.66-3.87,5.78,0,11.04.93,15.77,2.77,4.74,1.84,8.86,4.26,12.39,7.25,3.52,3,6.39,6.29,8.59,9.86,1.05,1.69,1.4,3.31,1.03,4.89-.37,1.58-1.29,2.79-2.76,3.63-1.58.73-3.19.84-4.81.31-1.63-.52-2.87-1.53-3.71-2.99-1.58-2.42-3.54-4.7-5.91-6.86-2.37-2.16-5.24-3.86-8.6-5.13-3.36-1.26-7.41-1.95-12.14-2.05-8.31,0-14.98,1.76-20.03,5.28-5.05,3.52-7.57,8.65-7.57,15.38,0,3.58.94,6.86,2.84,9.86,1.89,2.99,5.02,5.57,9.38,7.72,4.36,2.16,10.23,3.76,17.59,4.81,13.14,1.89,22.89,5.91,29.26,12.06,6.36,6.15,9.54,14.17,9.54,24.05,0,5.67-1.03,10.72-3.08,15.14-2.05,4.42-4.94,8.12-8.68,11.12-3.73,2.99-8.09,5.28-13.09,6.85-4.99,1.59-10.33,2.37-16,2.37Z"/>
    </g>
    <g>
      <path class="cls-1" d="m1220.51,2935.55c-1.79,0-3.25-.57-4.41-1.74-1.16-1.16-1.74-2.62-1.74-4.42v-110.88c0-1.79.57-3.25,1.74-4.42,1.16-1.16,2.62-1.74,4.41-1.74s3.26.58,4.42,1.74c1.16,1.16,1.74,2.63,1.74,4.42v49.21h76.97v-49.21c0-1.79.58-3.25,1.74-4.42,1.16-1.16,2.63-1.74,4.42-1.74s3.25.58,4.42,1.74c1.16,1.16,1.73,2.63,1.73,4.42v110.88c0,1.8-.57,3.26-1.73,4.42-1.16,1.16-2.63,1.74-4.42,1.74s-3.26-.57-4.42-1.74c-1.16-1.16-1.74-2.62-1.74-4.42v-50.63h-76.97v50.63c0,1.8-.58,3.26-1.74,4.42-1.16,1.16-2.63,1.74-4.42,1.74Z"/>
      <path class="cls-1" d="m1444.58,2938.07c-9.57,0-18.06-1.84-25.47-5.51-7.42-3.68-13.2-8.79-17.35-15.3-4.16-6.52-6.23-13.99-6.23-22.4v-76.33c0-1.79.57-3.25,1.74-4.42,1.16-1.16,2.62-1.74,4.41-1.74s3.26.58,4.42,1.74c1.16,1.16,1.74,2.63,1.74,4.42v76.33c0,6.21,1.55,11.68,4.65,16.41,3.1,4.73,7.44,8.44,13.01,11.12,5.57,2.68,11.94,4.02,19.09,4.02s13.3-1.34,18.77-4.02c5.46-2.68,9.75-6.39,12.86-11.12,3.09-4.73,4.65-10.2,4.65-16.41v-76.33c0-1.79.57-3.25,1.73-4.42,1.16-1.16,2.63-1.74,4.42-1.74,1.9,0,3.39.58,4.49,1.74,1.1,1.16,1.66,2.63,1.66,4.42v76.33c0,8.41-2.08,15.88-6.23,22.4-4.16,6.52-9.89,11.62-17.19,15.3-7.31,3.68-15.7,5.51-25.16,5.51Z"/>
      <path class="cls-1" d="m1587.89,2935.55c-2,0-3.66-.55-4.97-1.65-1.32-1.1-1.97-2.61-1.97-4.5v-110.88c0-1.79.57-3.25,1.74-4.42,1.16-1.16,2.62-1.74,4.41-1.74h38.33c6.31,0,12.01,1.34,17.11,4.02,5.1,2.68,9.15,6.34,12.15,10.97,2.99,4.63,4.49,9.99,4.49,16.09,0,5.67-1.53,10.72-4.58,15.14-3.05,4.42-7.05,7.78-11.99,10.09,7.05,1.89,12.72,5.44,17.04,10.65,4.31,5.2,6.47,11.8,6.47,19.8,0,7.15-1.64,13.46-4.89,18.92-3.26,5.47-7.76,9.75-13.49,12.86-5.72,3.1-12.28,4.65-19.64,4.65h-40.22Zm5.36-71.76h32.17c6.31,0,11.52-1.79,15.61-5.36,4.11-3.57,6.15-8.57,6.15-14.98s-2.05-11.1-6.15-14.36c-4.1-3.25-9.3-4.89-15.61-4.89h-32.17v39.59Zm0,59.94h34.85c5.05,0,9.52-.99,13.41-3,3.9-1.99,6.95-4.83,9.15-8.52,2.21-3.68,3.31-8.04,3.31-13.08,0-4.74-1.1-8.86-3.31-12.39-2.2-3.52-5.25-6.26-9.15-8.2-3.89-1.94-8.36-2.92-13.41-2.92h-34.85v48.11Z"/>
    </g>
  </g>
  <path class="cls-1" d="m653.26,1387.33c-54.11,0-104.71-10.18-151.81-30.56-47.1-20.37-88.18-48.76-123.25-85.18-35.06-36.4-62.47-78.99-82.16-127.75-19.71-48.76-29.57-101.53-29.57-158.33s9.86-108.37,29.57-156.82c19.69-48.43,47.1-90.84,82.16-127.26,35.07-36.41,75.99-64.96,122.76-85.68,46.75-20.7,97.52-31.06,152.31-31.06,51.44,0,95.69,6.69,132.77,20.04,37.07,13.37,74.3,35.41,111.73,66.13,5.34,4,9.52,8.19,12.52,12.52,3.01,4.36,5.02,8.69,6.02,13.03.99,4.36,1.5,9.53,1.5,15.54,0,12.7-4.51,23.22-13.53,31.57-9.01,8.36-19.88,13.03-32.56,14.02-12.7,1-25.06-3.16-37.08-12.52-24.72-21.37-50.27-37.74-76.65-49.1-26.4-11.35-61.29-17.03-104.71-17.03-39.42,0-76.49,8.01-111.22,24.05-34.74,16.04-65.31,38.07-91.69,66.13-26.4,28.06-46.94,60.63-61.63,97.7-14.7,37.08-22.04,76.65-22.04,118.74s7.34,82.67,22.04,119.75c14.69,37.07,35.23,69.64,61.63,97.7,26.38,28.06,56.94,49.95,91.69,65.64,34.73,15.7,71.8,23.55,111.22,23.55,34.07,0,66.29-5.84,96.7-17.54,30.39-11.69,59.62-27.89,87.68-48.6,12.02-8.67,23.88-12.52,35.57-11.52,11.68,1,21.54,5.68,29.56,14.03,8.02,8.36,12.02,19.88,12.02,34.57,0,6.69-1.34,13.19-4,19.54-2.68,6.36-6.69,12.19-12.02,17.53-36.08,28.73-74.66,50.45-115.74,65.14-41.08,14.69-84.34,22.05-129.76,22.05Z"/>
  <path class="cls-1" d="m1080.56,1377.3c-18.71,0-33.07-8.02-43.09-24.05-10.02-16.04-11.02-33.07-3-51.11l281.57-672.36c10.02-23.38,26.38-35.07,49.1-35.07,24.05,0,40.41,11.69,49.09,35.07l282.57,674.37c7.34,18.71,6.17,35.57-3.51,50.6-9.69,15.03-24.22,22.54-43.59,22.54-10.02,0-19.53-2.83-28.56-8.52-9.02-5.67-15.53-13.53-19.54-23.55l-248.5-617.26h28.06l-252.51,617.26c-4.69,10.69-11.53,18.71-20.55,24.05-9.02,5.35-18.21,8.02-27.55,8.02Zm53.11-172.35l40.08-86.18h392.8l40.08,86.18h-472.96Z"/>
  <path class="cls-1" d="m348.58,2352.26c-14.7,0-27.06-5.01-37.07-15.03-10.02-10.02-15.03-22.37-15.03-37.07v-678.38c0-15.35,5.01-27.88,15.03-37.58,10.02-9.67,22.38-14.53,37.07-14.53h198.64c57.44,0,109.72,9.52,156.82,28.56,47.1,19.05,88,46.1,122.75,81.17,34.73,35.07,61.45,76.33,80.16,123.75,18.69,47.44,28.06,99.88,28.06,157.32s-9.37,110.07-28.06,157.82c-18.71,47.77-45.43,89.18-80.16,124.26-34.74,35.07-75.65,62.13-122.75,81.17-47.1,19.04-99.38,28.56-156.82,28.56h-198.64Zm52.11-92.18h146.53c56.11,0,105.71-12.86,148.8-38.58,43.09-25.71,76.98-61.12,101.7-106.21,24.71-45.1,37.08-96.7,37.08-154.82s-12.37-110.56-37.08-155.32c-24.72-44.74-58.61-79.82-101.7-105.21-43.09-25.39-92.69-38.08-148.8-38.08h-146.53v598.22Z"/>
  <path class="cls-1" d="m1374.66,2360.27c-64.13,0-120.92-11.87-170.35-35.58-49.45-23.7-88.03-56.61-115.74-98.69-27.72-42.09-41.58-90.19-41.58-144.3v-467.95c0-15.35,5.01-27.88,15.03-37.58,10.02-9.67,22.38-14.53,37.07-14.53s27.89,4.86,37.58,14.53c9.68,9.7,14.54,22.22,14.54,37.58v467.95c0,36.08,9.52,67.98,28.56,95.69,19.04,27.73,45.42,49.45,79.16,65.14,33.72,15.7,72.3,23.55,115.74,23.55s79.31-7.85,111.72-23.55c32.4-15.69,57.78-37.41,76.16-65.14,18.36-27.71,27.56-59.62,27.56-95.69v-467.95c0-15.35,5.01-27.88,15.02-37.58,10.02-9.67,22.38-14.53,37.08-14.53s27.71,4.86,37.07,14.53c9.35,9.7,14.03,22.22,14.03,37.58v467.95c0,54.11-13.52,102.21-40.58,144.3-27.06,42.08-64.63,74.99-112.73,98.69-48.1,23.71-103.21,35.58-165.33,35.58Z"/>
  <path class="cls-1" d="m1577.55,560.61c-86.24,0-156.4-70.16-156.4-156.4s70.16-156.4,156.4-156.4,156.4,70.16,156.4,156.4-70.16,156.4-156.4,156.4Zm0-243.74c-48.16,0-87.34,39.18-87.34,87.34s39.18,87.34,87.34,87.34,87.34-39.18,87.34-87.34-39.18-87.34-87.34-87.34Z"/>
  <rect class="cls-1" x="264.46" y="208.28" width="1453.74" height="79.05" rx="39.53" ry="39.53" transform="translate(-30 215.76) rotate(-12.24)"/>
  <rect class="cls-1" x="296.48" y="2557.59" width="1414.29" height="73.02" rx="36.51" ry="36.51"/>
</svg>